<svg width="320" height="145" viewBox="0 0 320 145" fill="none" xmlns="http://www.w3.org/2000/svg">
<path d="M16.0826 134.683C17.311 132.654 18.2644 130.425 19.7807 128.603C21.6753 126.333 24.0113 124.465 26.243 122.523C28.5562 120.507 30.867 118.481 33.3793 116.714C42.5537 110.264 52.1223 104.39 61.2767 97.9012C62.4035 97.0968 62.9924 95.6617 64.1391 94.8965C64.5945 94.5955 65.2584 94.7274 65.7874 94.8903C66.2238 95.0307 66.9808 95.2833 66.8764 95.7333C66.5789 97.0579 65.9134 98.4449 64.8202 99.2525C55.8474 105.962 46.0829 111.553 36.9795 118.075C33.2061 120.775 29.7043 123.849 26.2057 126.891C24.5656 128.315 22.9803 129.836 21.5529 131.474C20.8605 132.267 20.3178 133.189 19.8805 134.141C19.4295 135.129 18.9593 136.177 18.9145 137.268C18.8972 137.622 19.3829 137.882 19.7332 137.933C22.5629 138.41 25.4487 139.18 28.3076 138.831C34.0438 138.118 42.738 140.015 45.1617 134.762C47.1104 130.536 36.0123 133.023 31.4762 131.965C31.1523 131.886 30.8469 131.65 30.6614 131.365C30.4687 131.049 30.2962 130.629 30.4117 130.275C30.613 129.628 30.8929 128.799 31.535 128.598C32.5229 128.284 33.5843 128.958 34.6099 128.953C36.7723 128.949 38.9301 128.782 41.076 128.564C47.2008 127.926 53.3509 127.445 59.4117 126.384C66.0482 125.214 72.6517 123.755 79.1264 121.879C109.213 113.194 139.028 103.61 169.06 94.7306C171.78 93.9216 174.529 93.1389 177.354 92.8305C178.239 92.7369 180.743 93.223 179.91 93.5449C170.605 97.0423 161.012 99.7098 151.496 102.567C133.107 108.091 114.6 113.195 96.2034 118.687C90.9775 120.245 85.9073 122.292 80.6377 123.707C73.7839 125.55 66.8673 127.167 59.8874 128.46C58.7879 128.669 57.6411 128.003 56.5322 128.169C53.3714 128.631 50.2929 129.501 47.2002 130.307C46.7666 130.418 45.5928 130.73 46.0052 130.909C47.8007 131.688 49.8769 131.595 51.711 132.257C52.4959 132.536 53.7191 132.867 53.7569 133.7C53.8268 134.864 52.7079 135.797 51.9594 136.679C51.7187 136.964 51.2844 136.976 50.9211 137.059C44.0173 138.684 37.1759 140.678 30.1707 141.813C27.6414 142.217 25.0398 141.83 22.4803 141.674C21.3501 141.605 20.1657 141.538 19.1175 141.111C17.9848 140.65 16.5679 140.188 16.0525 139.082" fill="#F6F0E2"/>
<path d="M195.308 85.6469C195.709 85.7736 196.094 86.1223 196.507 86.0168C196.912 85.924 197.004 85.3239 197.37 85.109C197.699 84.9243 198.154 84.6672 198.47 84.8569C198.891 85.121 199.259 85.725 199.115 86.1949C198.974 86.6752 198.31 86.8274 197.831 86.9807C197.15 87.2023 196.371 87.5666 195.701 87.3157C195.237 87.149 195.176 86.4529 195.064 85.965" fill="#F6F0E2"/>
<path d="M222.358 75.0573C222.852 75.0644 223.703 74.5853 223.834 75.058C223.953 75.5331 223.025 75.724 222.531 75.7169" fill="#F6F0E2"/>
<path d="M240.77 65.3879C241.205 64.6654 241.379 63.7079 242.063 63.2125C242.522 62.8779 243.282 63.5233 243.758 63.2175C244.52 62.7262 244.639 61.5299 245.413 61.0467C245.766 60.8237 246.198 61.5659 246.594 61.4317C246.898 61.3292 246.68 60.7126 246.942 60.5215C248.584 59.2932 250.279 58.1074 252.155 57.2842C252.551 57.1061 252.959 57.7884 253.384 57.6909C253.789 57.5981 253.907 57.014 254.28 56.8302C254.418 56.7658 254.66 56.9178 254.65 57.0623C254.638 57.3927 254.481 57.7565 254.236 57.9764C253.174 58.919 252.08 59.9126 250.782 60.494C250.386 60.6722 249.926 59.8597 249.552 60.0874C248.776 60.5603 248.709 61.8429 247.897 62.2583C247.222 62.5988 246.343 61.8168 245.638 62.0767C245.084 62.2801 245.006 63.0846 244.559 63.471C243.482 64.3952 242.378 65.3473 241.094 65.9911" fill="#F6F0E2"/>
<path d="M268.126 45.9772C269.171 45.6285 270.396 45.5881 271.27 44.9182C275.506 41.6643 279.203 37.7693 283.285 34.3212C284.302 33.4655 285.565 32.9247 286.526 32.0163C287.801 30.8067 288.915 29.4259 289.941 27.9892C291.57 25.7041 292.809 23.1479 294.45 20.8708C295.064 20.0201 296.125 19.5476 296.677 18.6673C297.258 17.7256 297.3 16.5251 297.782 15.5297C298.284 14.4753 299.181 13.625 299.624 12.5514C300.148 11.2623 300.521 9.88759 300.662 8.50054C300.911 5.96346 300.554 3.40146 300.782 0.869132C300.809 0.557075 301.119 0.289374 301.403 0.147743C301.542 0.0833072 301.767 0.206585 301.81 0.349531C302.326 2.07766 303.261 3.81922 303.039 5.61801C302.665 8.75196 301.202 11.6655 300.102 14.6378C299.468 16.3561 298.809 18.1024 297.843 19.6565C296.805 21.3255 295.268 22.6281 294.136 24.2204C292.797 26.1004 291.916 28.3124 290.419 30.0757C288.489 32.3315 286.198 34.2547 283.928 36.1732C280.565 38.9975 276.923 41.4598 273.561 44.2841C272.515 45.1573 271.844 46.4692 270.72 47.2401C270.115 47.6518 269.219 48.0319 268.556 47.714" fill="#F6F0E2"/>
</svg>
